<?xml version="1.0" encoding="UTF-8"?>
<svg xmlns="http://www.w3.org/2000/svg" xmlns:xlink="http://www.w3.org/1999/xlink" width="200px" height="200px" viewBox="0 0 200 200" version="1.1">
<g id="surface1">
<rect x="0" y="0" width="200" height="200" style="fill:rgb(100%,100%,100%);fill-opacity:1;stroke:none;"/>
<path style=" stroke:none;fill-rule:evenodd;fill:rgb(0%,0%,0%);fill-opacity:1;" d="M 186.707031 122.222656 C 190.628906 122.222656 194.117188 119.171875 194.117188 114.816406 L 194.117188 85.183594 C 194.117188 81.261719 190.628906 77.777344 186.707031 77.777344 L 13.289062 77.777344 C 9.371094 77.777344 5.878906 81.261719 5.878906 85.183594 L 5.878906 114.816406 C 5.878906 119.171875 9.367188 122.222656 13.289062 122.222656 Z M 186.707031 122.222656 "/>
<path style="fill-rule:evenodd;fill:rgb(100%,100%,100%);fill-opacity:1;stroke-width:1.814;stroke-linecap:butt;stroke-linejoin:miter;stroke:rgb(57.254905%,58.039218%,58.823532%);stroke-opacity:1;stroke-miterlimit:2.613;" d="M 162.310313 113.594254 L 158.108836 110.657738 C 155.172319 111.079391 151.810384 111.49728 148.452213 111.49728 C 131.235943 111.49728 117.374078 104.777175 117.374078 96.381749 C 117.374078 87.557139 131.235943 80.840799 148.452213 80.840799 C 165.668484 80.840799 179.530348 87.557139 179.530348 96.381749 C 179.530348 100.997351 175.328871 104.777175 169.026654 107.717456 L 179.530348 107.717456 L 179.530348 113.594254 Z M 154.329011 96.795873 L 158.952143 100.157808 C 160.631228 99.318265 161.470771 97.63918 161.470771 96.377984 C 161.470771 92.59816 156.42975 89.236225 148.448449 89.236225 C 140.8888 89.236225 135.429891 92.59816 135.429891 96.377984 C 135.429891 99.739919 140.470911 102.676436 147.612671 103.098089 L 143.411193 99.739919 Z M 69.501327 92.180271 L 53.960377 92.180271 C 53.124599 90.919075 51.859638 90.079532 49.766428 89.236225 C 47.66569 88.822101 45.143297 88.400447 42.620905 88.400447 C 35.48291 88.400447 30.867308 91.758617 30.867308 95.538441 C 30.867308 100.575697 37.583649 102.676436 43.042558 102.676436 C 47.66569 102.254782 51.445514 101.419004 53.124599 99.318265 L 71.180412 99.318265 C 69.501327 106.877913 55.643227 111.079391 41.363473 111.079391 C 22.886006 111.079391 12.807731 103.937632 12.807731 95.538441 C 12.807731 87.139251 22.464353 80.419145 40.106041 80.419145 C 45.143297 80.419145 51.02386 81.262452 53.960377 83.359427 L 53.960377 81.262452 L 69.501327 81.262452 Z M 69.501327 92.180271 " transform="matrix(1.037581,0,0,1.037581,0,0)"/>
<path style="fill-rule:evenodd;fill:rgb(100%,100%,100%);fill-opacity:1;stroke-width:1.814;stroke-linecap:butt;stroke-linejoin:miter;stroke:rgb(57.254905%,58.039218%,58.823532%);stroke-opacity:1;stroke-miterlimit:2.613;" d="M 69.501327 87.139251 L 79.579602 87.139251 L 79.579602 104.355521 L 73.281151 104.355521 L 73.281151 110.236084 L 103.937632 110.236084 L 103.937632 104.355521 L 97.217526 104.355521 L 97.217526 99.739919 L 108.135345 99.739919 C 124.512073 99.739919 131.657597 96.795873 131.657597 90.501186 C 131.657597 84.198969 124.512073 81.262452 108.135345 81.262452 L 69.501327 81.262452 Z M 104.355521 94.698899 L 96.377984 94.698899 L 96.377984 87.978793 L 104.355521 87.978793 C 110.657738 87.978793 113.172601 89.236225 113.172601 91.336964 C 113.172601 93.437702 110.236084 94.698899 104.355521 94.698899 Z M 104.355521 94.698899 " transform="matrix(1.037581,0,0,1.037581,0,0)"/>
<path style=" stroke:none;fill-rule:evenodd;fill:rgb(77.64706%,78.039217%,78.823531%);fill-opacity:1;" d="M 182.785156 85.183594 C 182.785156 83.003906 184.53125 81.699219 186.277344 81.699219 C 188.015625 81.699219 189.761719 83.003906 189.761719 85.183594 C 189.761719 86.925781 188.015625 88.667969 186.277344 88.667969 C 184.53125 88.667969 182.785156 86.925781 182.785156 85.183594 Z M 188.886719 85.183594 C 188.886719 83.441406 187.582031 82.574219 186.277344 82.574219 C 184.964844 82.574219 183.660156 83.441406 183.660156 85.183594 C 183.660156 86.496094 184.964844 87.800781 186.277344 87.800781 C 187.582031 87.800781 188.886719 86.496094 188.886719 85.183594 Z M 188.019531 86.925781 L 187.144531 86.925781 L 186.277344 85.183594 L 185.402344 85.183594 L 185.402344 86.925781 L 184.964844 86.925781 L 184.964844 83.003906 L 186.707031 83.003906 C 187.582031 83.003906 188.019531 83.441406 188.019531 84.316406 C 188.019531 85.183594 187.582031 85.183594 187.144531 85.183594 Z M 186.707031 84.75 C 187.144531 84.75 187.144531 84.75 187.144531 84.316406 C 187.144531 83.878906 186.707031 83.878906 186.277344 83.878906 L 185.402344 83.878906 L 185.402344 84.75 Z M 186.707031 84.75 "/>
</g>
</svg>
